<mxfile host="app.diagrams.net" modified="2023-09-18T15:59:29.365Z" agent="Mozilla/5.0 (Windows NT 10.0; Win64; x64) AppleWebKit/537.36 (KHTML, like Gecko) Chrome/116.0.0.0 Safari/537.36" version="21.7.5" etag="vlHmMGyO61rZ5D-JKR2f" type="github">
  <diagram name="Page-1" id="uuXZomVs9u3M1_NSgLu0">
    <mxGraphModel>
      <root>
        <mxCell id="0" />
        <mxCell id="1" parent="0" />
      </root>
    </mxGraphModel>
  </diagram>
</mxfile>
